<svg width="256" height="256" viewBox="0 0 256 256" fill="none" xmlns="http://www.w3.org/2000/svg">
<rect width="256" height="256" rx="64" fill="url(#paint0_linear_1271_1183)"/>
<path d="M84.3395 190.405L66.0772 192V103.668H84.3395V190.405Z" fill="white"/>
<path d="M84.3395 85.5377C83.2064 86.5467 81.8797 87.3228 80.4383 87.8209C78.9968 88.319 77.4694 88.5293 75.9446 88.4388C72.6112 88.1791 69.5085 86.6607 67.2853 84.201C65.0621 81.7412 63.8907 78.5305 64.0151 75.2397C63.9304 73.6453 64.2033 72.0519 64.8142 70.573C65.4251 69.094 66.3588 67.7657 67.5496 66.6822C68.6826 65.6883 70.0166 64.9415 71.4635 64.4916C72.9104 64.0416 74.4374 63.8982 75.9446 64.0711C79.1473 64.3881 82.1273 65.8296 84.3395 68.1323C86.6664 70.5594 87.9352 73.7875 87.8741 77.1249C87.8684 78.7565 87.4796 80.3647 86.7388 81.824C85.9979 83.2833 84.9253 84.5544 83.6033 85.5377H84.3395Z" fill="white"/>
<path fill-rule="evenodd" clip-rule="evenodd" d="M192 180.687L175.652 182.282V171.259C172.819 174.934 169.385 178.12 165.49 180.687C159.158 184.634 151.91 186.929 144.428 187.358C137.1 188.382 129.631 187.113 123.074 183.732C116.734 180.549 111.578 175.472 108.346 169.228C104.714 162.282 102.892 154.557 103.043 146.746C103.015 140.822 104.012 134.936 105.989 129.341C107.819 123.99 110.725 119.058 114.531 114.836C118.162 110.946 122.645 107.92 127.639 105.989C132.923 103.917 138.607 103.026 144.282 103.378C151.071 103.455 157.741 105.147 163.723 108.31C167.348 110.365 170.669 112.903 173.59 115.852V72.3387L191.705 73.9344L192 180.687ZM146.936 119.629C151.647 119.611 156.293 120.705 160.485 122.82C164.409 124.985 167.628 128.204 169.764 132.103C172.091 136.17 173.26 140.78 173.151 145.447C173.218 150.109 172.051 154.708 169.764 158.791C167.584 162.657 164.376 165.866 160.485 168.074C156.371 170.493 151.721 171.887 146.936 172.135C142.339 172.53 137.717 171.73 133.533 169.814C129.576 167.895 126.33 164.8 124.254 160.967C121.796 156.53 120.624 151.512 120.867 146.462C120.696 141.42 121.864 136.42 124.254 131.958C126.263 127.969 129.514 124.716 133.533 122.675C137.624 120.447 142.267 119.392 146.936 119.629Z" fill="white"/>
<defs>
<linearGradient id="paint0_linear_1271_1183" x1="-0.715083" y1="123.467" x2="256.872" y2="125.36" gradientUnits="userSpaceOnUse">
<stop stop-color="#45B1EF"/>
<stop offset="0.507103" stop-color="#2461FF"/>
<stop offset="0.991896" stop-color="#604AFE"/>
</linearGradient>
</defs>
</svg>
